<?xml version="1.0" standalone="no"?><!DOCTYPE svg PUBLIC "-//W3C//DTD SVG 1.1//EN" "http://www.w3.org/Graphics/SVG/1.1/DTD/svg11.dtd"><svg t="1699674668036" class="icon" viewBox="0 0 1024 1024" version="1.1" xmlns="http://www.w3.org/2000/svg" p-id="1652" xmlns:xlink="http://www.w3.org/1999/xlink" width="200" height="200"><path d="M244.927 765.336c57.388 53.033 211.488-56.894 326.551-143.576 115.063-86.68 205.808-183.018 205.808-183.018v379.627l-205.808 203.983H28V131.998h634.16S502.971 290.595 402.643 403.512 187.54 712.303 244.927 765.336z m64.721-75.269c-28.414-28.97 119.83-219.4 119.83-219.4l95.815 97.546S338.125 719.04 309.648 690.067z m145.25-245.264l335.414-341.256 95.874 97.484-335.473 341.257-95.816-97.485zM886.185 6L982 103.546l-70.394 71.621-95.815-97.546L886.186 6z" fill="#6E9FF4" p-id="1653"></path></svg>